<?xml version="1.0" encoding="utf-8"?>
<!-- Generator: Adobe Illustrator 19.0.0, SVG Export Plug-In . SVG Version: 6.00 Build 0)  -->
<!DOCTYPE svg PUBLIC "-//W3C//DTD SVG 1.1//EN" "http://www.w3.org/Graphics/SVG/1.1/DTD/svg11.dtd">
<svg version="1.1" id="Layer_1" xmlns="http://www.w3.org/2000/svg" xmlns:xlink="http://www.w3.org/1999/xlink" x="0px" y="0px"
	 width="97.98148px" height="121.34893px" viewBox="0 0 97.98148 121.34893" enable-background="new 0 0 97.98148 121.34893"
	 xml:space="preserve">
<g id="XMLID_48_">
	<path id="XMLID_53_" fill="#FFFFFF" d="M67.54864,102.20798c6.12-13.21563,14.29206-30.80329,19.79086-43.35079l10.64199-0.00133
		c-10.1592,20.96493-20.09411,41.46698-30.27847,62.48382c-3.97975-6.77026-7.69752-13.05491-11.37659-19.36212
		c-7.04594-12.07921-14.20641-24.09448-21.05976-36.28225c-5.48368-9.75198-0.51338-21.55868,9.76085-23.83027
		c6.25639-1.38326,11.67556,0.18844,15.85128,5.09092c4.14835,4.87033,5.17043,10.50749,2.67544,16.42401
		c-1.59011,3.77076-3.76365,7.29549-5.89482,11.34737c-1.07045-1.65262-5.15868-8.69086-5.15868-8.69086
		c3.10217-5.32547,3.16943-11.44298,0.01006-13.78828c-2.71535-2.01568-5.58459-1.73057-7.98952,0.61601
		c-2.87824,2.80841-2.32792,5.83989-0.43512,9.06699c7.00909,11.95003,13.90269,23.96778,20.84662,35.95607
		C65.64698,99.12032,66.40759,100.32651,67.54864,102.20798z"/>
	<path id="XMLID_52_" fill="#FFFFFF" d="M30.29898,121.34892C20.14046,100.39696,10.23132,79.95933,0,58.8572h10.65416
		c5.3295,11.7545,12.03567,26.6062,17.46519,38.31534c0.665,1.4341,1.3605,2.85405,2.38611,5.00127
		c3.46088-5.9173,6.63902-11.35117,10.12145-17.30532l5.56679,9.11575C41.28761,102.49844,35.49776,112.4745,30.29898,121.34892z"/>
	<g id="XMLID_51_">
		<title>Layer 1</title>
		<path id="path7_2_" fill="#FFFFFF" d="M41.10674,0C36.63599,0,33.006,3.62991,33.006,8.10036
			c0,9.09363,15.4276,20.47085,15.4276,20.47085s15.4276-11.66743,15.4276-20.47085C63.86119,3.62991,60.23128,0,55.76045,0
			c-3.24289,0-6.03271,1.91531-7.32685,4.67116C47.13946,1.91531,44.34971,0,41.10674,0z"/>
	</g>
</g>
</svg>
